<svg id="Layer_1" data-name="Layer 1" xmlns="http://www.w3.org/2000/svg" xmlns:xlink="http://www.w3.org/1999/xlink" viewBox="0 0 80 80"><defs><style>.cls-1,.cls-10,.cls-5{fill:none;}.cls-2,.cls-3,.cls-6{fill:#ffcebf;}.cls-10,.cls-11,.cls-12,.cls-3,.cls-5,.cls-6,.cls-8{stroke:#45413c;}.cls-11,.cls-3,.cls-5,.cls-6{stroke-linecap:round;}.cls-3,.cls-5{stroke-miterlimit:10;}.cls-4{fill:#ffb59e;}.cls-10,.cls-11,.cls-12,.cls-6,.cls-8{stroke-linejoin:round;}.cls-7{clip-path:url(#clip-path);}.cls-8{fill:#899f00;}.cls-12,.cls-9{fill:#b7d400;}.cls-11{fill:#fff;}</style><clipPath id="clip-path"><circle id="SVGID" class="cls-1" cx="40" cy="40" r="40"/></clipPath></defs><title>Artboard 1</title><path class="cls-2" d="M35.62,39.63,31.53,28.41a2.44,2.44,0,0,0-4.59,1.67c6.34,16.21,3.3,12.37,5.44,19.86,1.31,4.58,2.08,4.88,2.08,9.1h14v-2.6a4.88,4.88,0,0,1,1-3l9.8-10.32a2.44,2.44,0,1,0-3.45-3.45l-3.94,3.94a.61.61,0,0,1-.58.16c-.21-.05-.3-.25-.44-.41-1.2-1.45-1.37-.83,4.18-16.59a2.44,2.44,0,0,0-4.59-1.67L45.16,39.75,40.42,39Z"/><path class="cls-3" d="M35.78,40.46l-4.95-17a2.44,2.44,0,1,1,4.69-1.35L40.44,39"/><path class="cls-3" d="M40.44,39,45.8,20.26A2.44,2.44,0,1,1,50.5,21.6l-5,17.82"/><path class="cls-4" d="M41.39,53.36A26.16,26.16,0,0,1,33,52c.92,2.76,1.46,3.58,1.46,7.08h14v-2.6a4.88,4.88,0,0,1,1-3l2-2.14A26.15,26.15,0,0,1,41.39,53.36Z"/><path class="cls-5" d="M35.62,39.63,31.53,28.41a2.44,2.44,0,0,0-4.59,1.67c6.34,16.21,3.3,12.37,5.44,19.86,1.31,4.58,2.08,4.88,2.08,9.1h14v-2.6a4.88,4.88,0,0,1,1-3l9.8-10.32a2.44,2.44,0,1,0-3.45-3.45l-3.94,3.94a.61.61,0,0,1-.58.16c-.21-.05-.3-.25-.44-.41-1.2-1.45-1.37-.83,4.18-16.59a2.44,2.44,0,0,0-4.59-1.67L45.16,39.75,40.42,39Z"/><path class="cls-2" d="M46.67,40.23a16.22,16.22,0,0,0-6.09-1.08,15.41,15.41,0,0,0-6.71,1.37v2.43h13Z"/><path class="cls-6" d="M33.87,40.51a15.41,15.41,0,0,1,6.71-1.37,16.22,16.22,0,0,1,6.09,1.08"/><g class="cls-7"><rect class="cls-8" x="31.34" y="63.4" width="20.29" height="18.91" rx="1.22" ry="1.22" transform="translate(-31.36 114.34) rotate(-90)"/><path class="cls-9" d="M33.25,62.71A1.22,1.22,0,0,0,32,63.93V81.78A1.22,1.22,0,0,0,33.25,83h1.83V62.71Z"/><rect class="cls-10" x="31.34" y="63.4" width="20.29" height="18.91" rx="1.22" ry="1.22" transform="translate(-31.36 114.34) rotate(-90)"/><path class="cls-11" d="M40.88,52.64h2.44a0,0,0,0,1,0,0V69.11a0,0,0,0,1,0,0H40.88a1.22,1.22,0,0,1-1.22-1.22v-14a1.22,1.22,0,0,1,1.22-1.22Z" transform="translate(102.37 19.39) rotate(90)"/></g><path class="cls-12" d="M50.27,2.37a.79.79,0,0,1,.54,1.14l-4.89,9.39a.79.79,0,0,1-1.49-.36l-.1-10.45a.79.79,0,0,1,1-.78Z"/><path class="cls-12" d="M65.82,12.22a.79.79,0,0,1-.26,1.23L56,18a.79.79,0,0,1-1-1.19L61.25,8.4a.79.79,0,0,1,1.24,0Z"/><path class="cls-12" d="M28.86,2.37a.79.79,0,0,0-.54,1.14l4.89,9.39a.79.79,0,0,0,1.49-.36l.1-10.45a.79.79,0,0,0-1-.78Z"/><path class="cls-12" d="M13.31,12.22a.79.79,0,0,0,.26,1.23L23.15,18a.79.79,0,0,0,1-1.19L17.88,8.4a.79.79,0,0,0-1.24,0Z"/></svg>